<svg width="309" height="92" viewBox="0 0 309 92" fill="none" xmlns="http://www.w3.org/2000/svg">
<path d="M115.75 47.18C115.75 59.95 105.76 69.36 93.5 69.36C81.24 69.36 71.25 59.95 71.25 47.18C71.25 34.32 81.24 25 93.5 25C105.76 25 115.75 34.32 115.75 47.18ZM106.01 47.18C106.01 39.2 100.22 33.74 93.5 33.74C86.78 33.74 80.99 39.2 80.99 47.18C80.99 55.08 86.78 60.62 93.5 60.62C100.22 60.62 106.01 55.07 106.01 47.18Z" fill="#EA4335"/>
<path d="M163.75 47.18C163.75 59.95 153.76 69.36 141.5 69.36C129.24 69.36 119.25 59.95 119.25 47.18C119.25 34.33 129.24 25 141.5 25C153.76 25 163.75 34.32 163.75 47.18ZM154.01 47.18C154.01 39.2 148.22 33.74 141.5 33.74C134.78 33.74 128.99 39.2 128.99 47.18C128.99 55.08 134.78 60.62 141.5 60.62C148.22 60.62 154.01 55.07 154.01 47.18Z" fill="#FBBC05"/>
<path d="M209.75 26.34V66.16C209.75 82.54 200.09 89.23 188.67 89.23C177.92 89.23 171.45 82.04 169.01 76.16L177.49 72.63C179 76.24 182.7 80.5 188.66 80.5C195.97 80.5 200.5 75.99 200.5 67.5V64.31H200.16C197.98 67 193.78 69.35 188.48 69.35C177.39 69.35 167.23 59.69 167.23 47.26C167.23 34.74 177.39 25 188.48 25C193.77 25 197.97 27.35 200.16 29.96H200.5V26.35H209.75V26.34ZM201.19 47.26C201.19 39.45 195.98 33.74 189.35 33.74C182.63 33.74 177 39.45 177 47.26C177 54.99 182.63 60.62 189.35 60.62C195.98 60.62 201.19 54.99 201.19 47.26Z" fill="#4285F4"/>
<path d="M225 3V68H215.5V3H225Z" fill="#34A853"/>
<path d="M262.02 54.48L269.58 59.52C267.14 63.13 261.26 69.35 251.1 69.35C238.5 69.35 229.09 59.61 229.09 47.17C229.09 33.98 238.58 24.99 250.01 24.99C261.52 24.99 267.15 34.15 268.99 39.1L270 41.62L240.35 53.9C242.62 58.35 246.15 60.62 251.1 60.62C256.06 60.62 259.5 58.18 262.02 54.48ZM238.75 46.5L258.57 38.27C257.48 35.5 254.2 33.57 250.34 33.57C245.39 33.57 238.5 37.94 238.75 46.5Z" fill="#EA4335"/>
<path d="M35.29 41.41V32H67C67.31 33.64 67.47 35.58 67.47 37.68C67.47 44.74 65.54 53.47 59.32 59.69C53.27 65.99 45.54 69.35 35.3 69.35C16.32 69.35 0.359985 53.89 0.359985 34.91C0.359985 15.93 16.32 0.469971 35.3 0.469971C45.8 0.469971 53.28 4.58997 58.9 9.95997L52.26 16.6C48.23 12.82 42.77 9.87997 35.29 9.87997C21.43 9.87997 10.59 21.05 10.59 34.91C10.59 48.77 21.43 59.94 35.29 59.94C44.28 59.94 49.4 56.33 52.68 53.05C55.34 50.39 57.09 46.59 57.78 41.4L35.29 41.41Z" fill="#4285F4"/>
<path d="M220.805 82.5391H219.453V81.5781H220.75C221.323 81.5781 221.786 81.4974 222.141 81.3359C222.495 81.1745 222.753 80.9505 222.914 80.6641C223.076 80.3776 223.156 80.0469 223.156 79.6719C223.156 79.3125 223.068 78.9844 222.891 78.6875C222.714 78.3854 222.44 78.1458 222.07 77.9688C221.701 77.7865 221.224 77.6953 220.641 77.6953C220.203 77.6953 219.807 77.7786 219.453 77.9453C219.099 78.1068 218.818 78.3333 218.609 78.625C218.401 78.9115 218.297 79.2422 218.297 79.6172H216.789C216.789 79.1328 216.891 78.6979 217.094 78.3125C217.297 77.9219 217.576 77.5911 217.93 77.3203C218.284 77.0443 218.693 76.8333 219.156 76.6875C219.625 76.5417 220.12 76.4688 220.641 76.4688C221.25 76.4688 221.802 76.5391 222.297 76.6797C222.792 76.8151 223.216 77.0182 223.57 77.2891C223.924 77.5599 224.195 77.8958 224.383 78.2969C224.57 78.6979 224.664 79.1641 224.664 79.6953C224.664 80.0859 224.573 80.4531 224.391 80.7969C224.208 81.1406 223.948 81.4427 223.609 81.7031C223.271 81.9635 222.865 82.1693 222.391 82.3203C221.917 82.4661 221.388 82.5391 220.805 82.5391ZM219.453 81.875H220.805C221.445 81.875 222.016 81.9401 222.516 82.0703C223.016 82.2005 223.438 82.3906 223.781 82.6406C224.125 82.8906 224.385 83.2005 224.562 83.5703C224.745 83.9349 224.836 84.3542 224.836 84.8281C224.836 85.3594 224.732 85.8307 224.523 86.2422C224.32 86.6536 224.031 87.0026 223.656 87.2891C223.281 87.5755 222.836 87.7917 222.32 87.9375C221.81 88.0833 221.25 88.1562 220.641 88.1562C220.151 88.1562 219.667 88.0938 219.188 87.9688C218.714 87.8385 218.284 87.6406 217.898 87.375C217.513 87.1042 217.203 86.7604 216.969 86.3438C216.74 85.9271 216.625 85.4271 216.625 84.8438H218.133C218.133 85.224 218.237 85.5729 218.445 85.8906C218.659 86.2083 218.953 86.4635 219.328 86.6562C219.703 86.8438 220.141 86.9375 220.641 86.9375C221.214 86.9375 221.698 86.849 222.094 86.6719C222.495 86.4896 222.799 86.2422 223.008 85.9297C223.221 85.612 223.328 85.2552 223.328 84.8594C223.328 84.5104 223.271 84.2083 223.156 83.9531C223.047 83.6927 222.883 83.4792 222.664 83.3125C222.451 83.1458 222.182 83.0234 221.859 82.9453C221.542 82.862 221.172 82.8203 220.75 82.8203H219.453V81.875ZM226.219 83.8672V83.6875C226.219 83.0781 226.307 82.513 226.484 81.9922C226.661 81.4661 226.917 81.0104 227.25 80.625C227.583 80.2344 227.987 79.9323 228.461 79.7188C228.935 79.5 229.466 79.3906 230.055 79.3906C230.648 79.3906 231.182 79.5 231.656 79.7188C232.135 79.9323 232.542 80.2344 232.875 80.625C233.214 81.0104 233.471 81.4661 233.648 81.9922C233.826 82.513 233.914 83.0781 233.914 83.6875V83.8672C233.914 84.4766 233.826 85.0417 233.648 85.5625C233.471 86.0833 233.214 86.5391 232.875 86.9297C232.542 87.3151 232.138 87.6172 231.664 87.8359C231.195 88.0495 230.664 88.1562 230.07 88.1562C229.477 88.1562 228.943 88.0495 228.469 87.8359C227.995 87.6172 227.589 87.3151 227.25 86.9297C226.917 86.5391 226.661 86.0833 226.484 85.5625C226.307 85.0417 226.219 84.4766 226.219 83.8672ZM227.664 83.6875V83.8672C227.664 84.2891 227.714 84.6875 227.812 85.0625C227.911 85.4323 228.06 85.7604 228.258 86.0469C228.461 86.3333 228.714 86.5599 229.016 86.7266C229.318 86.888 229.669 86.9688 230.07 86.9688C230.466 86.9688 230.812 86.888 231.109 86.7266C231.411 86.5599 231.661 86.3333 231.859 86.0469C232.057 85.7604 232.206 85.4323 232.305 85.0625C232.409 84.6875 232.461 84.2891 232.461 83.8672V83.6875C232.461 83.2708 232.409 82.8776 232.305 82.5078C232.206 82.1328 232.055 81.8021 231.852 81.5156C231.654 81.224 231.404 80.9948 231.102 80.8281C230.805 80.6615 230.456 80.5781 230.055 80.5781C229.659 80.5781 229.31 80.6615 229.008 80.8281C228.711 80.9948 228.461 81.224 228.258 81.5156C228.06 81.8021 227.911 82.1328 227.812 82.5078C227.714 82.8776 227.664 83.2708 227.664 83.6875ZM241.148 75.8672H242.336C242.336 76.3776 242.258 76.7839 242.102 77.0859C241.945 77.3828 241.732 77.612 241.461 77.7734C241.195 77.9349 240.893 78.0573 240.555 78.1406C240.221 78.224 239.875 78.3047 239.516 78.3828C239.068 78.4766 238.651 78.625 238.266 78.8281C237.885 79.026 237.557 79.3073 237.281 79.6719C237.01 80.0365 236.81 80.5104 236.68 81.0938C236.555 81.6771 236.521 82.3984 236.578 83.2578V83.9766H235.391V83.2578C235.391 82.2943 235.482 81.4531 235.664 80.7344C235.852 80.0156 236.115 79.4089 236.453 78.9141C236.792 78.4193 237.193 78.026 237.656 77.7344C238.125 77.4427 238.641 77.2422 239.203 77.1328C239.609 77.0547 239.958 76.9714 240.25 76.8828C240.542 76.7891 240.763 76.6641 240.914 76.5078C241.07 76.3516 241.148 76.138 241.148 75.8672ZM239.438 80.0312C239.99 80.0312 240.482 80.1276 240.914 80.3203C241.346 80.513 241.714 80.7812 242.016 81.125C242.318 81.4688 242.547 81.875 242.703 82.3438C242.865 82.8073 242.945 83.3125 242.945 83.8594V84.0312C242.945 84.6198 242.859 85.1667 242.688 85.6719C242.521 86.1719 242.273 86.6094 241.945 86.9844C241.622 87.3542 241.227 87.6432 240.758 87.8516C240.294 88.0599 239.766 88.1641 239.172 88.1641C238.578 88.1641 238.047 88.0599 237.578 87.8516C237.115 87.6432 236.719 87.3542 236.391 86.9844C236.062 86.6094 235.812 86.1719 235.641 85.6719C235.474 85.1667 235.391 84.6198 235.391 84.0312V83.8594C235.391 83.7292 235.414 83.6016 235.461 83.4766C235.508 83.3516 235.565 83.224 235.633 83.0938C235.706 82.9635 235.771 82.8255 235.828 82.6797C236.021 82.2109 236.284 81.776 236.617 81.375C236.956 80.974 237.359 80.651 237.828 80.4062C238.302 80.1562 238.839 80.0312 239.438 80.0312ZM239.156 81.2109C238.625 81.2109 238.188 81.3333 237.844 81.5781C237.505 81.8229 237.253 82.1484 237.086 82.5547C236.919 82.9557 236.836 83.3906 236.836 83.8594V84.0312C236.836 84.4271 236.883 84.8021 236.977 85.1562C237.07 85.5104 237.211 85.8255 237.398 86.1016C237.591 86.3724 237.833 86.5859 238.125 86.7422C238.422 86.8984 238.771 86.9766 239.172 86.9766C239.573 86.9766 239.919 86.8984 240.211 86.7422C240.503 86.5859 240.742 86.3724 240.93 86.1016C241.117 85.8255 241.258 85.5104 241.352 85.1562C241.445 84.8021 241.492 84.4271 241.492 84.0312V83.8594C241.492 83.5052 241.445 83.1693 241.352 82.8516C241.258 82.5339 241.115 82.2526 240.922 82.0078C240.734 81.763 240.492 81.5703 240.195 81.4297C239.904 81.2839 239.557 81.2109 239.156 81.2109ZM245.891 81.1719V91.25H244.438V79.5469H245.766L245.891 81.1719ZM251.586 83.7031V83.8672C251.586 84.4818 251.513 85.0521 251.367 85.5781C251.221 86.099 251.008 86.5521 250.727 86.9375C250.451 87.3229 250.109 87.6224 249.703 87.8359C249.297 88.0495 248.831 88.1562 248.305 88.1562C247.768 88.1562 247.294 88.0677 246.883 87.8906C246.471 87.7135 246.122 87.4557 245.836 87.1172C245.549 86.7786 245.32 86.3724 245.148 85.8984C244.982 85.4245 244.867 84.8906 244.805 84.2969V83.4219C244.867 82.7969 244.984 82.237 245.156 81.7422C245.328 81.2474 245.555 80.8255 245.836 80.4766C246.122 80.1224 246.469 79.8542 246.875 79.6719C247.281 79.4844 247.75 79.3906 248.281 79.3906C248.812 79.3906 249.284 79.4948 249.695 79.7031C250.107 79.9062 250.453 80.1979 250.734 80.5781C251.016 80.9583 251.227 81.4141 251.367 81.9453C251.513 82.4714 251.586 83.0573 251.586 83.7031ZM250.133 83.8672V83.7031C250.133 83.2812 250.089 82.8854 250 82.5156C249.911 82.1406 249.773 81.8125 249.586 81.5312C249.404 81.2448 249.169 81.0208 248.883 80.8594C248.596 80.6927 248.255 80.6094 247.859 80.6094C247.495 80.6094 247.177 80.6719 246.906 80.7969C246.641 80.9219 246.414 81.0911 246.227 81.3047C246.039 81.513 245.885 81.7526 245.766 82.0234C245.651 82.2891 245.565 82.5651 245.508 82.8516V84.875C245.612 85.2396 245.758 85.5833 245.945 85.9062C246.133 86.224 246.383 86.4818 246.695 86.6797C247.008 86.8724 247.401 86.9688 247.875 86.9688C248.266 86.9688 248.602 86.888 248.883 86.7266C249.169 86.5599 249.404 86.3333 249.586 86.0469C249.773 85.7604 249.911 85.4323 250 85.0625C250.089 84.6875 250.133 84.2891 250.133 83.8672ZM258.414 86.5547V82.2031C258.414 81.8698 258.346 81.5807 258.211 81.3359C258.081 81.0859 257.883 80.8932 257.617 80.7578C257.352 80.6224 257.023 80.5547 256.633 80.5547C256.268 80.5547 255.948 80.6172 255.672 80.7422C255.401 80.8672 255.188 81.0312 255.031 81.2344C254.88 81.4375 254.805 81.6562 254.805 81.8906H253.359C253.359 81.5885 253.438 81.2891 253.594 80.9922C253.75 80.6953 253.974 80.4271 254.266 80.1875C254.562 79.9427 254.917 79.75 255.328 79.6094C255.745 79.4635 256.208 79.3906 256.719 79.3906C257.333 79.3906 257.875 79.4948 258.344 79.7031C258.818 79.9115 259.188 80.2266 259.453 80.6484C259.724 81.0651 259.859 81.5885 259.859 82.2188V86.1562C259.859 86.4375 259.883 86.737 259.93 87.0547C259.982 87.3724 260.057 87.6458 260.156 87.875V88H258.648C258.576 87.8333 258.518 87.612 258.477 87.3359C258.435 87.0547 258.414 86.7943 258.414 86.5547ZM258.664 82.875L258.68 83.8906H257.219C256.807 83.8906 256.44 83.9245 256.117 83.9922C255.794 84.0547 255.523 84.151 255.305 84.2812C255.086 84.4115 254.919 84.5755 254.805 84.7734C254.69 84.9661 254.633 85.1927 254.633 85.4531C254.633 85.7188 254.693 85.9609 254.812 86.1797C254.932 86.3984 255.112 86.5729 255.352 86.7031C255.596 86.8281 255.896 86.8906 256.25 86.8906C256.693 86.8906 257.083 86.7969 257.422 86.6094C257.76 86.4219 258.029 86.1927 258.227 85.9219C258.43 85.651 258.539 85.388 258.555 85.1328L259.172 85.8281C259.135 86.0469 259.036 86.2891 258.875 86.5547C258.714 86.8203 258.497 87.0755 258.227 87.3203C257.961 87.5599 257.643 87.7604 257.273 87.9219C256.909 88.0781 256.497 88.1562 256.039 88.1562C255.466 88.1562 254.964 88.0443 254.531 87.8203C254.104 87.5964 253.771 87.2969 253.531 86.9219C253.297 86.5417 253.18 86.1172 253.18 85.6484C253.18 85.1953 253.268 84.7969 253.445 84.4531C253.622 84.1042 253.878 83.8151 254.211 83.5859C254.544 83.3516 254.945 83.1745 255.414 83.0547C255.883 82.9349 256.406 82.875 256.984 82.875H258.664ZM264.695 84.3203L261.492 79.5469H263.234L265.422 83.0469H267.109L266.898 84.3203H264.695ZM265.484 84.1719L263.031 88H261.203L264.57 83.125L265.484 84.1719ZM267.852 79.5469V88H266.406V79.5469H267.852ZM272.781 79.5469L269.578 84.3203H267.375L267.148 83.0469H268.844L271.031 79.5469H272.781ZM271.234 88L268.773 84.1719L269.703 83.125L273.062 88H271.234ZM277.75 88.1562C277.161 88.1562 276.628 88.0573 276.148 87.8594C275.674 87.6562 275.266 87.3724 274.922 87.0078C274.583 86.6432 274.323 86.2109 274.141 85.7109C273.958 85.2109 273.867 84.6641 273.867 84.0703V83.7422C273.867 83.0547 273.969 82.4427 274.172 81.9062C274.375 81.3646 274.651 80.9062 275 80.5312C275.349 80.1562 275.745 79.8724 276.188 79.6797C276.63 79.487 277.089 79.3906 277.562 79.3906C278.167 79.3906 278.688 79.4948 279.125 79.7031C279.568 79.9115 279.93 80.2031 280.211 80.5781C280.492 80.9479 280.701 81.3854 280.836 81.8906C280.971 82.3906 281.039 82.9375 281.039 83.5312V84.1797H274.727V83H279.594V82.8906C279.573 82.5156 279.495 82.151 279.359 81.7969C279.229 81.4427 279.021 81.151 278.734 80.9219C278.448 80.6927 278.057 80.5781 277.562 80.5781C277.234 80.5781 276.932 80.6484 276.656 80.7891C276.38 80.9245 276.143 81.1276 275.945 81.3984C275.747 81.6693 275.594 82 275.484 82.3906C275.375 82.7812 275.32 83.2318 275.32 83.7422V84.0703C275.32 84.4714 275.375 84.849 275.484 85.2031C275.599 85.5521 275.763 85.8594 275.977 86.125C276.195 86.3906 276.458 86.599 276.766 86.75C277.078 86.901 277.432 86.9766 277.828 86.9766C278.339 86.9766 278.771 86.8724 279.125 86.6641C279.479 86.4557 279.789 86.1771 280.055 85.8281L280.93 86.5234C280.747 86.7995 280.516 87.0625 280.234 87.3125C279.953 87.5625 279.607 87.7656 279.195 87.9219C278.789 88.0781 278.307 88.1562 277.75 88.1562ZM288.461 83.2109V84.3828H283.992V83.2109H288.461ZM284.297 79.5469V88H282.852V79.5469H284.297ZM289.633 79.5469V88H288.18V79.5469H289.633ZM297.695 83.2109V84.3828H293.227V83.2109H297.695ZM293.531 79.5469V88H292.086V79.5469H293.531ZM298.867 79.5469V88H297.414V79.5469H298.867ZM302.906 83.9688H304.469L302.023 88H300.461L302.906 83.9688ZM304.117 79.5469H307.648V88H306.203V80.7188H304.117C303.706 80.7188 303.37 80.7891 303.109 80.9297C302.849 81.0651 302.659 81.2422 302.539 81.4609C302.419 81.6797 302.359 81.9062 302.359 82.1406C302.359 82.3698 302.414 82.5911 302.523 82.8047C302.633 83.013 302.805 83.1849 303.039 83.3203C303.273 83.4557 303.576 83.5234 303.945 83.5234H306.594V84.7109H303.945C303.461 84.7109 303.031 84.6458 302.656 84.5156C302.281 84.3854 301.964 84.2057 301.703 83.9766C301.443 83.7422 301.245 83.4688 301.109 83.1562C300.974 82.8385 300.906 82.4948 300.906 82.125C300.906 81.7552 300.977 81.4141 301.117 81.1016C301.263 80.7891 301.471 80.5156 301.742 80.2812C302.018 80.0469 302.354 79.8672 302.75 79.7422C303.151 79.612 303.607 79.5469 304.117 79.5469Z" fill="#4285F4"/>
</svg>
